<svg xmlns="http://www.w3.org/2000/svg" width="1200" height="400" viewBox="0 0 1200 400">
  <defs>
    <pattern id="dotB" width="9" height="9" patternUnits="userSpaceOnUse">
      <circle cx="4.5" cy="4.5" r="1.7" fill="#1B69CC"/>
      <animateTransform attributeName="patternTransform" type="translate" values="0 0;9 9" dur="3s" repeatCount="indefinite"/>
    </pattern>
    <pattern id="dotP" width="9" height="9" patternUnits="userSpaceOnUse">
      <circle cx="0" cy="0" r="1.6" fill="#E93C92"/><circle cx="9" cy="0" r="1.6" fill="#E93C92"/><circle cx="0" cy="9" r="1.6" fill="#E93C92"/><circle cx="9" cy="9" r="1.6" fill="#E93C92"/>
    </pattern>
    <linearGradient id="fadeB" x1="1" y1="0" x2="0.45" y2="0.9">
      <stop offset="0" stop-color="#fff" stop-opacity="0.9"/>
      <stop offset="1" stop-color="#fff" stop-opacity="0"/>
    </linearGradient>
    <linearGradient id="fadeP" x1="0" y1="1" x2="0.55" y2="0.1">
      <stop offset="0" stop-color="#fff" stop-opacity="0.9"/>
      <stop offset="1" stop-color="#fff" stop-opacity="0"/>
    </linearGradient>
    <mask id="mB"><rect width="1200" height="400" fill="url(#fadeB)"/></mask>
    <mask id="mP"><rect width="1200" height="400" fill="url(#fadeP)"/></mask>
    <path id="t" d="M139.6 -89.80000000000001Q139.6 -79.80000000000001 134.95 -71.75Q130.3 -63.7 121.70000000000002 -58.300000000000004Q113.10000000000001 -52.900000000000006 101.0 -50.7Q98.60000000000001 -50.300000000000004 96.05000000000001 -50.0Q93.5 -49.7 90.85 -49.550000000000004Q88.2 -49.400000000000006 85.4 -49.400000000000006Q76.2 -49.400000000000006 70.5 -50.5Q64.8 -51.6 61.0 -53.55Q57.2 -55.5 53.6 -58.2L54.800000000000004 -60.2Q57.800000000000004 -57.7 60.550000000000004 -56.150000000000006Q63.300000000000004 -54.6 66.45 -53.900000000000006Q69.60000000000001 -53.2 73.8 -53.2Q84.0 -53.2 90.30000000000001 -60.95Q96.60000000000001 -68.7 96.60000000000001 -86.80000000000001Q96.60000000000001 -101.5 92.15 -113.0Q87.7 -124.5 80.5 -131.05Q73.3 -137.6 65.0 -137.6H60.800000000000004V-8.0Q60.800000000000004 -5.6000000000000005 61.900000000000006 -4.45Q63.0 -3.3000000000000003 65.4 -2.8000000000000003L71.0 -1.8Q71.9 -1.7000000000000002 72.25 -1.5Q72.60000000000001 -1.3 72.60000000000001 -0.8Q72.60000000000001 0.0 71.4 0.0H7.4Q6.800000000000001 0.0 6.5 -0.25Q6.2 -0.5 6.2 -0.8Q6.2 -1.5 7.800000000000001 -1.8L13.4 -2.8000000000000003Q15.8 -3.3000000000000003 16.9 -4.45Q18.0 -5.6000000000000005 18.0 -8.0V-134.20000000000002Q18.0 -135.4 16.85 -136.10000000000002Q15.700000000000001 -136.8 13.4 -137.20000000000002L7.800000000000001 -138.20000000000002Q6.2 -138.5 6.2 -139.20000000000002Q6.2 -139.5 6.5 -139.75Q6.800000000000001 -140.0 7.4 -140.0H64.8Q87.7 -140.0 104.5 -133.85Q121.30000000000001 -127.7 130.45 -116.45Q139.6 -105.2 139.6 -89.80000000000001ZM71.0 -51.800000000000004 110.60000000000001 -56.2 138.6 -7.2Q139.9 -5.0 141.3 -3.75Q142.70000000000002 -2.5 144.8 -1.8Q145.70000000000002 -1.5 146.05 -1.4Q146.4 -1.3 146.4 -0.8Q146.4 -0.5 146.10000000000002 -0.25Q145.8 0.0 145.20000000000002 0.0H87.60000000000001Q86.4 0.0 86.4 -0.8Q86.4 -1.3 86.80000000000001 -1.35Q87.2 -1.4000000000000001 88.0 -1.8L90.4 -2.8000000000000003Q93.10000000000001 -3.9000000000000004 94.15 -5.25Q95.2 -6.6000000000000005 93.2 -10.200000000000001Z M258.90000000000003 -139.20000000000002Q258.90000000000003 -139.5 259.15000000000003 -139.75Q259.40000000000003 -140.0 259.90000000000003 -140.0H294.3Q294.8 -140.0 295.05 -139.75Q295.3 -139.5 295.3 -139.20000000000002Q295.3 -138.8 295.0 -138.60000000000002Q294.70000000000005 -138.4 294.1 -138.20000000000002L292.1 -137.4Q287.40000000000003 -135.5 282.95000000000005 -130.5Q278.5 -125.5 276.20000000000005 -117.2L249.3 -19.700000000000003Q248.60000000000002 -16.900000000000002 248.45000000000002 -14.600000000000001Q248.3 -12.3 248.3 -9.8V-1.2000000000000002Q248.3 -0.6000000000000001 248.10000000000002 -0.30000000000000004Q247.90000000000003 0.0 247.3 0.0H208.50000000000003Q207.90000000000003 0.0 207.60000000000002 -0.30000000000000004Q207.3 -0.6000000000000001 207.3 -1.2000000000000002V-9.700000000000001Q207.3 -11.100000000000001 206.70000000000002 -13.350000000000001Q206.10000000000002 -15.600000000000001 205.3 -18.2L170.50000000000003 -132.20000000000002Q169.8 -134.3 169.10000000000002 -135.35000000000002Q168.4 -136.4 167.3 -136.8L164.50000000000003 -138.0Q162.9 -138.70000000000002 162.9 -139.20000000000002Q162.9 -139.5 163.20000000000002 -139.75Q163.50000000000003 -140.0 164.10000000000002 -140.0H222.8Q223.40000000000003 -140.0 223.70000000000005 -139.75Q224.00000000000003 -139.5 224.00000000000003 -139.20000000000002Q224.00000000000003 -138.8 223.65000000000003 -138.65Q223.3 -138.5 222.40000000000003 -138.20000000000002L219.00000000000003 -137.20000000000002Q216.20000000000002 -136.4 215.65000000000003 -135.0Q215.10000000000002 -133.6 216.00000000000003 -130.6L248.3 -21.0L245.10000000000002 -13.600000000000001L273.70000000000005 -116.80000000000001Q275.6 -123.5 273.20000000000005 -129.25Q270.8 -135.0 262.1 -137.6L260.1 -138.20000000000002Q259.40000000000003 -138.4 259.15000000000003 -138.60000000000002Q258.90000000000003 -138.8 258.90000000000003 -139.20000000000002Z M380.4 -138.20000000000002 374.79999999999995 -137.20000000000002Q372.59999999999997 -136.8 371.4 -136.10000000000002Q370.2 -135.4 370.2 -134.20000000000002V-6.800000000000001Q370.2 -4.3 371.5 -3.35Q372.79999999999995 -2.4000000000000004 375.2 -2.4000000000000004H381.0Q385.9 -2.4000000000000004 391.2 -4.7Q396.5 -7.0 402.35 -13.05Q408.2 -19.1 414.5 -30.400000000000002L427.2 -53.0Q427.5 -53.6 427.79999999999995 -53.8Q428.09999999999997 -54.0 428.4 -53.800000000000004Q428.9 -53.7 429.04999999999995 -53.300000000000004Q429.2 -52.900000000000006 429.0 -52.0L419.2 -0.2Q418.9 1.4000000000000001 418.7 1.8000000000000003Q418.5 2.2 418.2 2.2Q417.79999999999995 2.2 416.34999999999997 1.6500000000000001Q414.9 1.1 412.79999999999995 0.55Q410.7 0.0 408.2 0.0H316.79999999999995Q316.2 0.0 315.9 -0.25Q315.59999999999997 -0.5 315.59999999999997 -0.8Q315.59999999999997 -1.5 317.2 -1.8L322.79999999999995 -2.8000000000000003Q325.09999999999997 -3.2 326.25 -3.9000000000000004Q327.4 -4.6000000000000005 327.4 -5.800000000000001V-134.20000000000002Q327.4 -135.4 326.25 -136.10000000000002Q325.09999999999997 -136.8 322.79999999999995 -137.20000000000002L317.2 -138.20000000000002Q315.59999999999997 -138.5 315.59999999999997 -139.20000000000002Q315.59999999999997 -139.5 315.9 -139.75Q316.2 -140.0 316.79999999999995 -140.0H380.79999999999995Q381.4 -140.0 381.7 -139.75Q382.0 -139.5 382.0 -139.20000000000002Q382.0 -138.5 380.4 -138.20000000000002Z M508.0 -5.800000000000001Q508.0 -4.6000000000000005 509.2 -3.9000000000000004Q510.4 -3.2 512.6 -2.8000000000000003L518.2 -1.8Q519.8 -1.5 519.8 -0.8Q519.8 -0.5 519.5 -0.25Q519.2 0.0 518.6 0.0H454.59999999999997Q454.0 0.0 453.7 -0.25Q453.4 -0.5 453.4 -0.8Q453.4 -1.5 455.0 -1.8L460.59999999999997 -2.8000000000000003Q462.9 -3.2 464.04999999999995 -3.9000000000000004Q465.2 -4.6000000000000005 465.2 -5.800000000000001V-134.20000000000002Q465.2 -135.4 464.04999999999995 -136.10000000000002Q462.9 -136.8 460.59999999999997 -137.20000000000002L455.0 -138.20000000000002Q453.4 -138.5 453.4 -139.20000000000002Q453.4 -139.5 453.7 -139.75Q454.0 -140.0 454.59999999999997 -140.0H518.6Q519.2 -140.0 519.5 -139.75Q519.8 -139.5 519.8 -139.20000000000002Q519.8 -138.5 518.2 -138.20000000000002L512.6 -137.20000000000002Q510.4 -136.8 509.2 -136.10000000000002Q508.0 -135.4 508.0 -134.20000000000002Z M616.6 -142.0Q633.3 -142.0 646.7 -136.9Q660.1 -131.8 669.6 -122.4Q679.1 -113.0 684.1500000000001 -99.95Q689.2 -86.9 689.2 -71.0Q689.2 -54.7 684.3 -41.25Q679.4 -27.8 670.3 -18.15Q661.2 -8.5 648.55 -3.25Q635.9 2.0 620.5 2.0Q603.8 2.0 590.4 -3.05Q577.0 -8.1 567.55 -17.6Q558.1 -27.1 553.05 -40.55Q548.0 -54.0 548.0 -70.8Q548.0 -86.4 553.0 -99.45Q558.0 -112.5 567.2 -122.0Q576.4 -131.5 588.95 -136.75Q601.5 -142.0 616.6 -142.0ZM646.2 -37.6Q646.2 -52.5 644.0 -67.15Q641.8 -81.80000000000001 638.05 -94.75Q634.3 -107.7 629.3499999999999 -117.7Q624.4 -127.7 618.9 -133.4Q613.4 -139.1 607.8 -139.1Q602.4 -139.1 598.65 -135.15Q594.9 -131.20000000000002 592.95 -123.45000000000002Q591.0 -115.7 591.0 -104.4Q591.0 -89.10000000000001 593.15 -74.15Q595.3 -59.2 599.0999999999999 -46.0Q602.9 -32.800000000000004 607.75 -22.650000000000002Q612.6 -12.5 618.1500000000001 -6.7Q623.7 -0.9 629.3 -0.9Q635.2 -0.9 638.95 -4.7Q642.7 -8.5 644.45 -16.6Q646.2 -24.700000000000003 646.2 -37.6Z M752.6 -0.8Q752.6 -0.5 752.35 -0.25Q752.1 0.0 751.6 0.0H713.2Q712.7 0.0 712.45 -0.25Q712.2 -0.5 712.2 -0.8Q712.2 -1.4000000000000001 713.4000000000001 -1.8L715.4000000000001 -2.4000000000000004Q721.9000000000001 -4.4 726.5500000000001 -9.25Q731.2 -14.100000000000001 731.2 -22.700000000000003V-115.4Q731.2 -116.60000000000001 731.1 -117.15Q731.0 -117.7 730.2 -119.0L720.6 -136.4Q720.1 -137.4 719.45 -138.3Q718.8000000000001 -139.20000000000002 718.8000000000001 -139.6Q718.8000000000001 -139.8 719.0 -139.9Q719.2 -140.0 719.8000000000001 -140.0H766.6Q767.1 -140.0 767.55 -139.7Q768.0 -139.4 768.4000000000001 -138.6L828.2 -22.200000000000003L826.2 -17.400000000000002V-117.30000000000001Q826.2 -125.9 821.6 -130.8Q817.0 -135.70000000000002 810.4000000000001 -137.6L808.4000000000001 -138.20000000000002Q807.2 -138.6 807.2 -139.20000000000002Q807.2 -139.5 807.45 -139.75Q807.7 -140.0 808.2 -140.0H846.6Q847.1 -140.0 847.35 -139.75Q847.6 -139.5 847.6 -139.20000000000002Q847.6 -138.6 846.4000000000001 -138.20000000000002L844.4000000000001 -137.6Q837.9000000000001 -135.70000000000002 833.25 -130.8Q828.6 -125.9 828.6 -117.30000000000001V-23.200000000000003Q828.6 -21.900000000000002 829.0 -20.85Q829.4000000000001 -19.8 829.8000000000001 -19.0L837.4000000000001 -5.800000000000001Q838.8000000000001 -3.3000000000000003 839.2 -2.3000000000000003Q839.6 -1.3 839.6 -0.8Q839.6 -0.5 839.3 -0.25Q839.0 0.0 838.2 0.0H794.4000000000001Q793.0 0.0 793.0 -1.6Q793.0 -2.2 792.7 -3.35Q792.4000000000001 -4.5 792.0 -5.2L727.6 -125.4H733.6V-22.6Q733.6 -14.100000000000001 738.3 -9.25Q743.0 -4.4 749.4000000000001 -2.4000000000000004L751.4000000000001 -1.8Q752.6 -1.4000000000000001 752.6 -0.8Z"/>
  </defs>

  <rect width="1200" height="400" fill="#F1F2EE"/>

  <g style="mix-blend-mode:multiply" opacity="0.42">
    <rect width="1200" height="400" fill="url(#dotB)" mask="url(#mB)"/>
    <g mask="url(#mP)">
      <rect x="-40" y="-40" width="1280" height="480" fill="url(#dotP)">
        <animateTransform attributeName="transform" type="translate" values="0 0;-18 9;0 0" dur="10s" repeatCount="indefinite"/>
      </rect>
    </g>
  </g>

  <circle cx="816" cy="160" r="118" fill="#E93C92" opacity="0.12" style="mix-blend-mode:multiply">
    <animate attributeName="r" values="110;128;110" dur="8s" calcMode="spline" keyTimes="0;0.5;1" keySplines="0.45 0 0.55 1;0.45 0 0.55 1" repeatCount="indefinite"/>
  </circle>

  <g fill="none" stroke="#16181D" stroke-width="1">
    <path d="M18 28H50M28 18V50"/><path d="M1182 28H1150M1172 18V50"/><path d="M18 372H50M28 382V350"/><path d="M1182 372H1150M1172 382V350"/>
  </g>
  <path d="M68 372H1132" stroke="#D3D6D0" stroke-width="1"/>
  <path d="M68 28H1132" stroke="#16181D" stroke-width="1"/>

  <g transform="translate(176.2 268)">
    <g style="mix-blend-mode:multiply">
      <use href="#t" fill="#1B69CC">
        <animateTransform attributeName="transform" type="translate" values="-34 22;-3 -2;-3 -2;7 -5;-3 -2;-3 -2;-34 22" keyTimes="0;0.22;0.55;0.62;0.72;0.9;1" calcMode="spline" keySplines="0.2 0.8 0.2 1;0.2 0.8 0.2 1;0.2 0.8 0.2 1;0.2 0.8 0.2 1;0.2 0.8 0.2 1;0.2 0.8 0.2 1" dur="7s" repeatCount="indefinite"/>
      </use>
    </g>
    <g style="mix-blend-mode:multiply">
      <use href="#t" fill="#E93C92">
        <animateTransform attributeName="transform" type="translate" values="34 -22;3 2;3 2;-7 5;3 2;3 2;34 -22" keyTimes="0;0.22;0.55;0.62;0.72;0.9;1" calcMode="spline" keySplines="0.2 0.8 0.2 1;0.2 0.8 0.2 1;0.2 0.8 0.2 1;0.2 0.8 0.2 1;0.2 0.8 0.2 1;0.2 0.8 0.2 1" dur="7s" repeatCount="indefinite"/>
      </use>
    </g>
  </g>
</svg>
